<?xml version="1.0" encoding="utf-8"?>
<!-- Generator: Adobe Illustrator 17.0.0, SVG Export Plug-In . SVG Version: 6.00 Build 0)  -->
<!DOCTYPE svg PUBLIC "-//W3C//DTD SVG 1.1//EN" "http://www.w3.org/Graphics/SVG/1.1/DTD/svg11.dtd">
<svg version="1.1" id="Layer_1" xmlns="http://www.w3.org/2000/svg" xmlns:xlink="http://www.w3.org/1999/xlink" x="0px" y="0px"
	 width="97px" height="29.667px" viewBox="0 0 97 29.667" enable-background="new 0 0 97 29.667" xml:space="preserve">
<g>
	<path fill="#20393F" d="M3.442,22.737h2.624L6.802,6.866H4.05V4.274h5.408l6.72,13.215l6.719-13.215h5.344v2.592h-2.72
		l0.704,15.871h2.656v2.592h-8.127v-2.592h2.592L22.865,9.65l-6.464,12.479h-0.544L9.394,9.65l-0.48,13.087h2.592v2.592H3.442
		V22.737z"/>
	<path fill="#20393F" d="M29.897,17.905V6.866h-2.496V4.274h8.032v2.592h-2.656v10.848c0,3.552,1.792,5.343,4.863,5.343
		c3.104,0,4.928-1.695,4.928-5.247V6.866h-2.656V4.274h8v2.592h-2.528V17.81c0,5.216-3.04,7.903-7.744,7.903
		C32.873,25.713,29.897,23.025,29.897,17.905z"/>
	<path fill="#20393F" d="M46.946,22.737h2.56V6.866h-2.56V4.274h15.263v5.504h-2.784V6.834h-7.007v6.912h6.527v2.527h-6.527v6.464
		h2.848v2.592h-8.319V22.737z"/>
	<path fill="#20393F" d="M58.644,20.497c0-1.536,0.896-2.592,2.144-2.592c0.992,0,1.856,0.8,1.856,1.856
		c0,0.703-0.416,1.312-0.96,1.535c0.192,0.8,1.248,1.76,3.167,1.76c0.992,0,1.888-0.288,2.528-0.928c0.768-0.8,1.12-2.08,1.12-3.871
		V6.866h-3.232V4.274h8.512v2.592h-2.432v11.423c0,2.464-0.64,4.479-1.855,5.696c-1.184,1.151-2.752,1.728-4.64,1.728
		C61.428,25.713,58.644,23.441,58.644,20.497z"/>
	<path fill="#20393F" d="M75.667,17.905V6.866h-2.496V4.274h8.032v2.592h-2.656v10.848c0,3.552,1.792,5.343,4.863,5.343
		c3.104,0,4.928-1.695,4.928-5.247V6.866h-2.656V4.274h8v2.592h-2.528V17.81c0,5.216-3.04,7.903-7.744,7.903
		C78.643,25.713,75.667,23.025,75.667,17.905z"/>
</g>
</svg>
